# xmcd CD database file
#
# Track frame offsets:
#	150
#	10341
#	29354
#	45939
#	62614
#	94975
#	133984
#	159696
#	180330
#	192869
#	216394
#	242171
#	264842
#	283941
#
# Disc length: 4016 seconds
#
# Revision: 0
# Processed by: cddbd v1.5.1PL0 Copyright (c) Steve Scherf et al.
# Submitted via: CDex 1.51
#
DISCID=c70fae0e
DTITLE=Pulse Therapy - ATG8
DYEAR=2005
DGENRE=Game
TTITLE0=Fate of CRASHED-TWELVE-BEAT - Wiz.
TTITLE1=artificial kidney - Pulse Therapy(s→b)
TTITLE2=Quarthez - NYOU.
TTITLE3=STRAWS EXAMINATION - baddy
TTITLE4=B - Project I-zk
TTITLE5=inference-ism (logical structure P"F"GO mix) - 0884 feat. ST☆R
TTITLE6=DEFACE - Fancy K.M feat SST
TTITLE7=TRIBE GROOVES -including STREET CARNIVAL???- - BEN SHIMIZU
TTITLE8=dicotyledonous - DOVE-TERROLIST
TTITLE9=MOTHER -speed mix- - shun._
TTITLE10=Machine-gun Train (FA mix) - 0884
TTITLE11=From Arento - 小笠原サチコ→Doctor B
TTITLE12=road - [ G ]
TTITLE13=revliS - yddab
EXTD=YEAR: 2005
EXTT0=
EXTT1=
EXTT2=
EXTT3=
EXTT4=
EXTT5=
EXTT6=
EXTT7=
EXTT8=
EXTT9=
EXTT10=
EXTT11=
EXTT12=
EXTT13=
PLAYORDER=
